<svg width="100" height="55" viewBox="0 0 100 55" fill="none" xmlns="http://www.w3.org/2000/svg">
<path d="M4.512 33V30.072H8.496C9.232 30.072 9.808 29.856 10.224 29.424C10.64 28.992 10.848 28.464 10.848 27.84C10.848 27.408 10.752 27.024 10.56 26.688C10.368 26.352 10.096 26.088 9.744 25.896C9.408 25.704 8.992 25.608 8.496 25.608H4.512V22.752H8.184C8.808 22.752 9.312 22.6 9.696 22.296C10.08 21.976 10.272 21.496 10.272 20.856C10.272 20.232 10.08 19.768 9.696 19.464C9.312 19.144 8.808 18.984 8.184 18.984H4.512V16.056H8.904C9.992 16.056 10.912 16.256 11.664 16.656C12.432 17.056 13.016 17.592 13.416 18.264C13.816 18.936 14.016 19.68 14.016 20.496C14.016 21.536 13.68 22.416 13.008 23.136C12.336 23.856 11.344 24.352 10.032 24.624L10.128 23.352C11.552 23.624 12.648 24.176 13.416 25.008C14.2 25.84 14.592 26.864 14.592 28.08C14.592 29.008 14.36 29.848 13.896 30.6C13.448 31.336 12.792 31.92 11.928 32.352C11.08 32.784 10.056 33 8.856 33H4.512ZM1.632 33V16.056H5.352V33H1.632ZM16.671 33V15.576H20.343V33H16.671ZM28.5448 33.264C27.3448 33.264 26.2568 33 25.2808 32.472C24.3208 31.928 23.5608 31.192 23.0008 30.264C22.4408 29.336 22.1608 28.296 22.1608 27.144C22.1608 25.992 22.4408 24.96 23.0008 24.048C23.5608 23.136 24.3208 22.416 25.2808 21.888C26.2408 21.344 27.3288 21.072 28.5448 21.072C29.7608 21.072 30.8488 21.336 31.8088 21.864C32.7688 22.392 33.5288 23.12 34.0888 24.048C34.6488 24.96 34.9288 25.992 34.9288 27.144C34.9288 28.296 34.6488 29.336 34.0888 30.264C33.5288 31.192 32.7688 31.928 31.8088 32.472C30.8488 33 29.7608 33.264 28.5448 33.264ZM28.5448 29.928C29.0728 29.928 29.5368 29.816 29.9368 29.592C30.3368 29.352 30.6408 29.024 30.8488 28.608C31.0728 28.176 31.1848 27.688 31.1848 27.144C31.1848 26.6 31.0728 26.128 30.8488 25.728C30.6248 25.312 30.3128 24.992 29.9128 24.768C29.5288 24.528 29.0728 24.408 28.5448 24.408C28.0328 24.408 27.5768 24.528 27.1768 24.768C26.7768 24.992 26.4648 25.312 26.2408 25.728C26.0168 26.144 25.9048 26.624 25.9048 27.168C25.9048 27.696 26.0168 28.176 26.2408 28.608C26.4648 29.024 26.7768 29.352 27.1768 29.592C27.5768 29.816 28.0328 29.928 28.5448 29.928Z" fill="#0C152E"/>
<g filter="url(#filter0_d_22_773)">
<path d="M43.51 15.8L49.99 12.05C50.67 11.65 51.27 11.6 51.79 11.9C52.33 12.2 52.6 12.75 52.6 13.55V16.55L49.99 18.05V15.05L43.51 18.8V36.2L49.99 32.45V25.25L46.09 27.5V24.5L52.6 20.75V33.95L49.99 35.45V32.45C49.99 32.97 49.87 33.53 49.63 34.13C49.39 34.73 49.07 35.29 48.67 35.81C48.27 36.31 47.84 36.69 47.38 36.95L43.51 39.2C42.81 39.6 42.2 39.65 41.68 39.35C41.16 39.05 40.9 38.5 40.9 37.7V20.3C40.9 19.76 41.02 19.2 41.26 18.62C41.5 18.02 41.82 17.47 42.22 16.97C42.62 16.45 43.05 16.06 43.51 15.8ZM49.99 32.45V35.45L46.87 33.65V30.65L49.99 32.45ZM49.99 25.25V32.45L46.87 30.65V23.45L49.99 25.25ZM49.99 15.05V18.05L46.87 16.25V13.25L49.99 15.05ZM52.6 20.75L46.09 24.5L43 22.7L49.48 18.95L52.6 20.75ZM46.09 24.5V27.5L43 25.7V22.7L46.09 24.5ZM49.99 32.45L43.51 36.2L40.39 34.4L46.87 30.65L49.99 32.45ZM51.82 11.9C51.28 11.6 50.67 11.65 49.99 12.05L43.51 15.8C43.05 16.06 42.62 16.45 42.22 16.97C41.82 17.47 41.5 18.02 41.26 18.62C41.02 19.2 40.9 19.76 40.9 20.3V37.7C40.9 38.5 41.16 39.05 41.68 39.35L38.56 37.55C38.04 37.25 37.78 36.7 37.78 35.9V18.5C37.78 17.96 37.9 17.4 38.14 16.82C38.38 16.22 38.7 15.67 39.1 15.17C39.5 14.65 39.93 14.26 40.39 14L46.87 10.25C47.57 9.85 48.18 9.8 48.7 10.1L51.82 11.9ZM60.4143 15.8L66.8943 12.05C67.5743 11.65 68.1743 11.6 68.6943 11.9C69.2343 12.2 69.5043 12.75 69.5043 13.55V16.55L66.8943 18.05V15.05L60.4143 18.8V36.2L66.8943 32.45V25.25L62.9943 27.5V24.5L69.5043 20.75V33.95L66.8943 35.45V32.45C66.8943 32.97 66.7743 33.53 66.5343 34.13C66.2943 34.73 65.9743 35.29 65.5743 35.81C65.1743 36.31 64.7443 36.69 64.2843 36.95L60.4143 39.2C59.7143 39.6 59.1043 39.65 58.5843 39.35C58.0643 39.05 57.8043 38.5 57.8043 37.7V20.3C57.8043 19.76 57.9243 19.2 58.1643 18.62C58.4043 18.02 58.7243 17.47 59.1243 16.97C59.5243 16.45 59.9543 16.06 60.4143 15.8ZM66.8943 32.45V35.45L63.7743 33.65V30.65L66.8943 32.45ZM66.8943 25.25V32.45L63.7743 30.65V23.45L66.8943 25.25ZM66.8943 15.05V18.05L63.7743 16.25V13.25L66.8943 15.05ZM69.5043 20.75L62.9943 24.5L59.9043 22.7L66.3843 18.95L69.5043 20.75ZM62.9943 24.5V27.5L59.9043 25.7V22.7L62.9943 24.5ZM66.8943 32.45L60.4143 36.2L57.2943 34.4L63.7743 30.65L66.8943 32.45ZM68.7243 11.9C68.1843 11.6 67.5743 11.65 66.8943 12.05L60.4143 15.8C59.9543 16.06 59.5243 16.45 59.1243 16.97C58.7243 17.47 58.4043 18.02 58.1643 18.62C57.9243 19.2 57.8043 19.76 57.8043 20.3V37.7C57.8043 38.5 58.0643 39.05 58.5843 39.35L55.4643 37.55C54.9443 37.25 54.6843 36.7 54.6843 35.9V18.5C54.6843 17.96 54.8043 17.4 55.0443 16.82C55.2843 16.22 55.6043 15.67 56.0043 15.17C56.4043 14.65 56.8343 14.26 57.2943 14L63.7743 10.25C64.4743 9.85 65.0843 9.8 65.6043 10.1L68.7243 11.9Z" fill="#806BFF"/>
</g>
<g filter="url(#filter1_d_22_773)">
<path d="M43.51 15.8L49.99 12.05C50.67 11.65 51.27 11.6 51.79 11.9C52.33 12.2 52.6 12.75 52.6 13.55V16.55L49.99 18.05V15.05L43.51 18.8V36.2L49.99 32.45V25.25L46.09 27.5V24.5L52.6 20.75V33.95L49.99 35.45V32.45C49.99 32.97 49.87 33.53 49.63 34.13C49.39 34.73 49.07 35.29 48.67 35.81C48.27 36.31 47.84 36.69 47.38 36.95L43.51 39.2C42.81 39.6 42.2 39.65 41.68 39.35C41.16 39.05 40.9 38.5 40.9 37.7V20.3C40.9 19.76 41.02 19.2 41.26 18.62C41.5 18.02 41.82 17.47 42.22 16.97C42.62 16.45 43.05 16.06 43.51 15.8ZM49.99 32.45V35.45V32.45ZM49.99 25.25V32.45V25.25ZM49.99 15.05V18.05V15.05ZM52.6 20.75L46.09 24.5L52.6 20.75ZM46.09 24.5V27.5V24.5ZM49.99 32.45L43.51 36.2L49.99 32.45ZM51.82 11.9C51.28 11.6 50.67 11.65 49.99 12.05L43.51 15.8C43.05 16.06 42.62 16.45 42.22 16.97C41.82 17.47 41.5 18.02 41.26 18.62C41.02 19.2 40.9 19.76 40.9 20.3V37.7C40.9 38.5 41.16 39.05 41.68 39.35C41.16 39.05 40.9 38.5 40.9 37.7V20.3C40.9 19.76 41.02 19.2 41.26 18.62C41.5 18.02 41.82 17.47 42.22 16.97C42.62 16.45 43.05 16.06 43.51 15.8L49.99 12.05C50.67 11.65 51.28 11.6 51.82 11.9ZM60.4143 15.8L66.8943 12.05C67.5743 11.65 68.1743 11.6 68.6943 11.9C69.2343 12.2 69.5043 12.75 69.5043 13.55V16.55L66.8943 18.05V15.05L60.4143 18.8V36.2L66.8943 32.45V25.25L62.9943 27.5V24.5L69.5043 20.75V33.95L66.8943 35.45V32.45C66.8943 32.97 66.7743 33.53 66.5343 34.13C66.2943 34.73 65.9743 35.29 65.5743 35.81C65.1743 36.31 64.7443 36.69 64.2843 36.95L60.4143 39.2C59.7143 39.6 59.1043 39.65 58.5843 39.35C58.0643 39.05 57.8043 38.5 57.8043 37.7V20.3C57.8043 19.76 57.9243 19.2 58.1643 18.62C58.4043 18.02 58.7243 17.47 59.1243 16.97C59.5243 16.45 59.9543 16.06 60.4143 15.8ZM66.8943 32.45V35.45V32.45ZM66.8943 25.25V32.45V25.25ZM66.8943 15.05V18.05V15.05ZM69.5043 20.75L62.9943 24.5L69.5043 20.75ZM62.9943 24.5V27.5V24.5ZM66.8943 32.45L60.4143 36.2L66.8943 32.45ZM68.7243 11.9C68.1843 11.6 67.5743 11.65 66.8943 12.05L60.4143 15.8C59.9543 16.06 59.5243 16.45 59.1243 16.97C58.7243 17.47 58.4043 18.02 58.1643 18.62C57.9243 19.2 57.8043 19.76 57.8043 20.3V37.7C57.8043 38.5 58.0643 39.05 58.5843 39.35C58.0643 39.05 57.8043 38.5 57.8043 37.7V20.3C57.8043 19.76 57.9243 19.2 58.1643 18.62C58.4043 18.02 58.7243 17.47 59.1243 16.97C59.5243 16.45 59.9543 16.06 60.4143 15.8L66.8943 12.05C67.5743 11.65 68.1843 11.6 68.7243 11.9Z" fill="#43318C"/>
</g>
<path d="M79.056 33.264C77.792 33.264 76.664 33.008 75.672 32.496C74.696 31.968 73.928 31.24 73.368 30.312C72.808 29.384 72.528 28.336 72.528 27.168C72.528 26 72.8 24.96 73.344 24.048C73.904 23.12 74.656 22.392 75.6 21.864C76.544 21.336 77.608 21.072 78.792 21.072C79.944 21.072 80.96 21.32 81.84 21.816C82.72 22.312 83.408 23 83.904 23.88C84.416 24.76 84.672 25.768 84.672 26.904C84.672 27.112 84.656 27.336 84.624 27.576C84.608 27.8 84.568 28.064 84.504 28.368L74.448 28.392V25.872L82.944 25.848L81.36 26.904C81.344 26.232 81.24 25.68 81.048 25.248C80.856 24.8 80.568 24.464 80.184 24.24C79.816 24 79.36 23.88 78.816 23.88C78.24 23.88 77.736 24.016 77.304 24.288C76.888 24.544 76.56 24.912 76.32 25.392C76.096 25.872 75.984 26.456 75.984 27.144C75.984 27.832 76.104 28.424 76.344 28.92C76.6 29.4 76.952 29.776 77.4 30.048C77.864 30.304 78.408 30.432 79.032 30.432C79.608 30.432 80.128 30.336 80.592 30.144C81.056 29.936 81.464 29.632 81.816 29.232L83.832 31.248C83.256 31.92 82.56 32.424 81.744 32.76C80.928 33.096 80.032 33.264 79.056 33.264ZM91.4124 33.24C90.3084 33.24 89.3244 32.976 88.4604 32.448C87.6124 31.92 86.9404 31.2 86.4444 30.288C85.9644 29.376 85.7244 28.336 85.7244 27.168C85.7244 26 85.9644 24.96 86.4444 24.048C86.9404 23.136 87.6124 22.416 88.4604 21.888C89.3244 21.36 90.3084 21.096 91.4124 21.096C92.2124 21.096 92.9324 21.248 93.5724 21.552C94.2284 21.856 94.7644 22.28 95.1804 22.824C95.6124 23.352 95.8524 23.96 95.9004 24.648V29.568C95.8524 30.256 95.6204 30.88 95.2044 31.44C94.7884 31.984 94.2524 32.424 93.5964 32.76C92.9404 33.08 92.2124 33.24 91.4124 33.24ZM92.0604 29.928C92.5884 29.928 93.0444 29.816 93.4284 29.592C93.8124 29.352 94.1164 29.024 94.3404 28.608C94.5644 28.192 94.6764 27.712 94.6764 27.168C94.6764 26.624 94.5644 26.152 94.3404 25.752C94.1324 25.336 93.8284 25.008 93.4284 24.768C93.0444 24.528 92.5964 24.408 92.0844 24.408C91.5724 24.408 91.1164 24.528 90.7164 24.768C90.3324 25.008 90.0204 25.336 89.7804 25.752C89.5564 26.168 89.4444 26.64 89.4444 27.168C89.4444 27.696 89.5564 28.168 89.7804 28.584C90.0044 29 90.3164 29.328 90.7164 29.568C91.1164 29.808 91.5644 29.928 92.0604 29.928ZM98.1324 33H94.5324V29.856L95.0844 27.024L94.4604 24.192V15.576H98.1324V33Z" fill="#0C152E"/>
<defs>
<filter id="filter0_d_22_773" x="26.78" y="2.64999" width="53.7243" height="52.15" filterUnits="userSpaceOnUse" color-interpolation-filters="sRGB">
<feFlood flood-opacity="0" result="BackgroundImageFix"/>
<feColorMatrix in="SourceAlpha" type="matrix" values="0 0 0 0 0 0 0 0 0 0 0 0 0 0 0 0 0 0 127 0" result="hardAlpha"/>
<feOffset dy="4"/>
<feGaussianBlur stdDeviation="5.5"/>
<feComposite in2="hardAlpha" operator="out"/>
<feColorMatrix type="matrix" values="0 0 0 0 0 0 0 0 0 0 0 0 0 0 0 0 0 0 0.2 0"/>
<feBlend mode="normal" in2="BackgroundImageFix" result="effect1_dropShadow_22_773"/>
<feBlend mode="normal" in="SourceGraphic" in2="effect1_dropShadow_22_773" result="shape"/>
</filter>
<filter id="filter1_d_22_773" x="36.9" y="11.45" width="36.6043" height="36.35" filterUnits="userSpaceOnUse" color-interpolation-filters="sRGB">
<feFlood flood-opacity="0" result="BackgroundImageFix"/>
<feColorMatrix in="SourceAlpha" type="matrix" values="0 0 0 0 0 0 0 0 0 0 0 0 0 0 0 0 0 0 127 0" result="hardAlpha"/>
<feOffset dy="4"/>
<feGaussianBlur stdDeviation="2"/>
<feComposite in2="hardAlpha" operator="out"/>
<feColorMatrix type="matrix" values="0 0 0 0 0.0470588 0 0 0 0 0.0823529 0 0 0 0 0.180392 0 0 0 0.2 0"/>
<feBlend mode="normal" in2="BackgroundImageFix" result="effect1_dropShadow_22_773"/>
<feBlend mode="normal" in="SourceGraphic" in2="effect1_dropShadow_22_773" result="shape"/>
</filter>
</defs>
</svg>
